<?xml version="1.0" encoding="UTF-8"?>
<svg fill="#423d39" width="700pt" height="700pt" version="1.1" viewBox="0 0 700 700" xmlns="http://www.w3.org/2000/svg" xmlns:xlink="http://www.w3.org/1999/xlink">
 <g>
  <path d="m350 0c-74.262 0-145.48 29.5-197.99 82.012-52.512 52.508-82.012 123.73-82.012 197.99s29.5 145.48 82.012 197.99c52.508 52.512 123.73 82.012 197.99 82.012 49.148 0 97.434-12.938 140-37.512 42.566-24.578 77.91-59.922 102.49-102.49 24.574-42.566 37.512-90.852 37.512-140 0-74.262-29.5-145.48-82.012-197.99-52.508-52.512-123.73-82.012-197.99-82.012zm137.03 287-88.48 88.48c-1.8633 1.8867-4.4023 2.9492-7.0547 2.9492s-5.1953-1.0625-7.0547-2.9492c-3.8125-3.9336-3.8125-10.18 0-14.113l71.566-71.398h-236.15c-5.4609-0.0625-9.8555-4.5078-9.8555-9.9688-0.03125-2.6289 0.99609-5.1602 2.8516-7.0234 1.8516-1.8633 4.375-2.9023 7.0039-2.8867h236.15l-71.566-71.625c-2.25-1.7695-3.625-4.4258-3.7734-7.2812-0.14844-2.8594 0.94922-5.6406 3.0039-7.6328 2.0547-1.9883 4.8711-2.9961 7.7227-2.7539 2.8516 0.23828 5.4609 1.6992 7.1562 4.0039l88.48 88.48c1.8242 1.8164 2.8477 4.2852 2.8477 6.8594s-1.0234 5.043-2.8477 6.8594z"/>
  <use x="70" y="644" xlink:href="#x"/>
  <use x="90.550781" y="644" xlink:href="#d"/>
  <use x="104.359375" y="644" xlink:href="#a"/>
  <use x="123.347656" y="644" xlink:href="#g"/>
  <use x="142.242188" y="644" xlink:href="#c"/>
  <use x="155.628906" y="644" xlink:href="#a"/>
  <use x="174.617188" y="644" xlink:href="#l"/>
  <use x="204.410156" y="644" xlink:href="#f"/>
  <use x="224.453125" y="644" xlink:href="#k"/>
  <use x="252.453125" y="644" xlink:href="#j"/>
  <use x="274.011719" y="644" xlink:href="#g"/>
  <use x="292.90625" y="644" xlink:href="#i"/>
  <use x="302.503906" y="644" xlink:href="#e"/>
  <use x="322.4375" y="644" xlink:href="#f"/>
  <use x="342.480469" y="644" xlink:href="#b"/>
  <use x="361.71875" y="644" xlink:href="#w"/>
  <use x="397.332031" y="644" xlink:href="#v"/>
  <use x="420.574219" y="644" xlink:href="#a"/>
  <use x="439.5625" y="644" xlink:href="#h"/>
  <use x="456.230469" y="644" xlink:href="#i"/>
  <use x="465.828125" y="644" xlink:href="#u"/>
  <use x="485.871094" y="644" xlink:href="#e"/>
  <use x="505.804688" y="644" xlink:href="#h"/>
  <use x="70" y="672" xlink:href="#t"/>
  <use x="82.183594" y="672" xlink:href="#d"/>
  <use x="95.992188" y="672" xlink:href="#b"/>
  <use x="115.226562" y="672" xlink:href="#s"/>
  <use x="154.152344" y="672" xlink:href="#c"/>
  <use x="167.535156" y="672" xlink:href="#r"/>
  <use x="187.46875" y="672" xlink:href="#a"/>
  <use x="216.207031" y="672" xlink:href="#q"/>
  <use x="239.640625" y="672" xlink:href="#b"/>
  <use x="258.878906" y="672" xlink:href="#p"/>
  <use x="278.8125" y="672" xlink:href="#e"/>
  <use x="308.492188" y="672" xlink:href="#o"/>
  <use x="329.015625" y="672" xlink:href="#d"/>
  <use x="342.820312" y="672" xlink:href="#b"/>
  <use x="362.058594" y="672" xlink:href="#n"/>
  <use x="371.65625" y="672" xlink:href="#a"/>
  <use x="390.648438" y="672" xlink:href="#m"/>
  <use x="407.242188" y="672" xlink:href="#c"/>
 </g>
</svg>
