<?xml version="1.0" encoding="UTF-8"?>
<svg fill="#f2f8f1" width="700pt" height="700pt" version="1.1" viewBox="0 0 700 700" xmlns="http://www.w3.org/2000/svg" xmlns:xlink="http://www.w3.org/1999/xlink">
 <g>
  <path d="m548.8 376.88c-26.879-1.6797-24.641 8.9609-24.641 8.9609l1.1211 25.762s0 13.441-7.8398 12.879c-7.8398-0.55859-10.078-15.68-10.078-15.68l-6.1602-25.762c0-0.55859 0.55859-1.6797 0.55859-2.2383 0.55859-1.6797 0.55859-3.9219 0-5.6016-0.55859-3.9219-1.1211-8.3984-3.9219-11.762 0 0-4.4805-2.8008-4.4805-2.2383-2.8008-19.039-12.32-38.078-31.922-43.68-1.1211-0.55859-14-2.8008-20.16-3.9219 0.55859-1.6797 1.6797-3.3594 2.2383-5.0391 1.6797-6.7188-2.2383-12.879-4.4805-18.48-1.6797-5.6016-1.1211-10.641 5.6016-11.199 6.1602-0.55859 17.359 5.6016 20.719 4.4805 3.9219-0.55859 8.3984-3.9219 8.3984-8.3984 0-4.4805-6.7188-14-6.7188-14s-8.9609-17.922-11.762-25.762c-2.8008-7.8398-12.879-15.121-12.879-15.121s-10.078-7.2812-8.9609-12.32c1.1211-5.0391 5.0391-6.7188 6.7188-11.762 5.6016 0.55859 11.762 2.2383 16.238 2.8008 16.238 2.2383 37.52 6.7188 50.398 3.9219 0 0 6.7188-0.55859 0-5.6016-6.7188-5.0391-22.961-20.719-28-26.32-5.0391-5.6016-22.961-17.359-26.32-24.641-10.641-21.84-13.441-48.16-31.359-66.641-12.879-13.441-29.121-24.078-45.922-31.359 6.1602 1.1211 12.32 1.6797 18.48 1.6797h2.2383v-5.0391c-15.68 0.55859-33.602-3.3594-46.48-6.7188 2.8008 0 5.6016-0.55859 8.9609-1.6797 5.6016-1.6797 16.238-6.1602 14-14-2.8008-10.641-21.281-7.2812-28.559-6.1602-14 2.2383-26.879 8.9609-39.199 15.68-1.6797-2.2383-4.4805-2.8008-7.8398-2.2383-2.2383 0.55859-3.9219 1.6797-5.0391 2.8008-2.2383-1.1211-9.5195-3.9219-27.441-3.9219-11.199 0-49.84 11.762-29.68 24.641-8.3984 2.2383-17.922 4.4805-24.641 5.0391l0.55859 5.0391c3.9219-0.55859 8.3984-1.1211 13.441-2.2383-14 8.3984-26.32 19.039-36.961 31.359-11.199 12.879-17.359 30.238-19.602 46.48-2.8008 20.16 2.8008 40.32 1.6797 60.48-1.1211 10.641-6.7188 15.68-12.32 24.078-5.6016 8.3984-7.8398 17.922-13.441 26.32-4.4805 7.8398-11.762 13.441-17.922 20.16-2.2383 2.2383-1.6797 3.9219 0 4.4805h2.2383c4.4805-0.55859 8.3984-2.8008 12.32-3.9219 6.1602-1.6797 12.32-3.3594 17.922-5.6016 3.9219-1.6797 16.801-5.6016 30.238-10.641 0.55859 5.0391 1.1211 10.641 2.2383 14 2.2383 6.7188 12.879 19.039 12.879 19.039s10.078 8.9609 10.641 20.719c0 6.1602-1.6797 11.199-3.9219 14.559-3.3594-2.2383-12.32-5.6016-20.16 4.4805-10.078 12.879-14 24.641-19.039 31.359-5.0391 6.7188-16.801 20.16-17.922 26.32-1.1211 6.1602 4.4805 12.879 4.4805 12.879l-31.922 57.68s14 16.238 48.16 18.48c34.16 2.2383 36.398-7.2812 80.078 4.4805 43.68 11.762 68.32 77.84 154 67.199 0 0-11.199-34.719-25.199-55.441-14-20.719-30.238-43.68-30.238-43.68 1.1211-6.1602 7.8398-25.762 3.3594-30.238-2.8008-2.8008-5.6016-5.0391-8.3984-7.8398 2.2383-5.0391 5.0391-10.078 5.0391-15.68 0-5.0391-2.2383-11.199-0.55859-16.238 1.1211-3.3594 4.4805-5.6016 7.8398-5.6016 4.4805 0 7.2812 3.9219 11.762 5.0391 4.4805 1.1211 11.762 0.55859 16.238 0.55859 5.0391 0 9.5195 3.9219 14 5.0391 11.762 3.9219 24.641 2.2383 33.039-7.2812 8.9609-10.078 1.6797-20.16 1.6797-20.16s-6.7188-8.3984-6.7188-13.441c0-5.0391 3.9219-8.9609 3.9219-8.9609v-0.55859h1.6797c3.9219 0 7.2812-2.8008 7.2812-5.6016 0-1.1211 0-1.6797-0.55859-2.2383 2.8008 0.55859 6.7188 1.1211 7.2812 1.1211 4.4805 1.1211 8.3984 2.2383 12.32 4.4805 7.8398 4.4805 12.879 12.32 15.121 20.719 0.55859 2.8008 3.9219 12.32 1.6797 14.559-1.6797 1.6797-2.2383 6.1602-2.2383 8.3984 0 4.4805 1.6797 9.5195 4.4805 12.879 0.55859 1.1211 3.3594 2.8008 3.9219 3.9219 6.7188 28.559 8.9609 62.16 46.48 64.961 15.68 1.1211 24.641-7.2812 24.641-7.2812s10.078-6.1602 13.441-22.961c3.3594-16.801 3.9219-36.398 3.9219-36.398 0.007812 0.015625 2.8086-9.5039-24.07-10.625zm-234.64-341.04h-6.1602v-0.55859c1.1211 0.55859 3.3594 0.55859 6.1602 0.55859zm-42 2.8008c1.6797-0.55859 14-2.2383 19.039-2.2383v1.1211c-1.6797 0-3.9219 0.55859-5.6016 0.55859-8.9609 1.1211-18.48 3.3594-27.441 6.7188 4.4844-2.8008 8.9648-5.6016 14.004-6.1602zm-30.801 1.6797c8.9609-4.4805 16.238-5.0391 26.32-6.1602-7.8398 0.55859-17.359 14-25.762 11.199-2.2383-1.1211-3.3594-3.3594-0.55859-5.0391zm91.84-3.3594h2.2383-2.2383zm6.1602-6.1602c-4.4805-0.55859-12.32-2.8008-16.801-1.1211 7.2812-2.2383 14-5.0391 21.281-6.7188 3.9219-0.55859 7.8398-1.1211 11.762-0.55859 5.6016 1.1211 6.1602 5.0391 1.1211 7.8398h-0.55859c-5.043 2.7969-11.203 1.1172-16.805 0.55859z"/>
  <use x="70" y="644" xlink:href="#x"/>
  <use x="90.546875" y="644" xlink:href="#d"/>
  <use x="104.359375" y="644" xlink:href="#b"/>
  <use x="123.347656" y="644" xlink:href="#c"/>
  <use x="142.242188" y="644" xlink:href="#a"/>
  <use x="155.625" y="644" xlink:href="#b"/>
  <use x="174.617188" y="644" xlink:href="#j"/>
  <use x="204.40625" y="644" xlink:href="#i"/>
  <use x="224.453125" y="644" xlink:href="#h"/>
  <use x="252.453125" y="644" xlink:href="#g"/>
  <use x="280.3125" y="644" xlink:href="#c"/>
  <use x="299.210938" y="644" xlink:href="#a"/>
  <use x="312.59375" y="644" xlink:href="#a"/>
  <use x="325.976562" y="644" xlink:href="#f"/>
  <use x="345.914062" y="644" xlink:href="#b"/>
  <use x="364.902344" y="644" xlink:href="#w"/>
  <use x="400.515625" y="644" xlink:href="#v"/>
  <use x="423.757812" y="644" xlink:href="#c"/>
  <use x="442.65625" y="644" xlink:href="#u"/>
  <use x="460.90625" y="644" xlink:href="#t"/>
  <use x="470.503906" y="644" xlink:href="#s"/>
  <use x="70" y="672" xlink:href="#r"/>
  <use x="82.179688" y="672" xlink:href="#d"/>
  <use x="95.992188" y="672" xlink:href="#e"/>
  <use x="115.226562" y="672" xlink:href="#q"/>
  <use x="154.148438" y="672" xlink:href="#a"/>
  <use x="167.535156" y="672" xlink:href="#f"/>
  <use x="187.46875" y="672" xlink:href="#b"/>
  <use x="216.207031" y="672" xlink:href="#p"/>
  <use x="239.640625" y="672" xlink:href="#e"/>
  <use x="258.875" y="672" xlink:href="#o"/>
  <use x="278.8125" y="672" xlink:href="#n"/>
  <use x="308.492188" y="672" xlink:href="#m"/>
  <use x="329.015625" y="672" xlink:href="#d"/>
  <use x="342.820312" y="672" xlink:href="#e"/>
  <use x="362.058594" y="672" xlink:href="#l"/>
  <use x="371.65625" y="672" xlink:href="#b"/>
  <use x="390.648438" y="672" xlink:href="#k"/>
  <use x="407.242188" y="672" xlink:href="#a"/>
 </g>
</svg>
